PathFileType	4	(X/Y/Z)	./resultDataOpenSim/trcMotMarkerGrf/sub06/qtm-01-08.trc
DataRate	CameraRate	NumFrames	NumMarkers	Units	OrigDataRate	OrigDataStartFrame	OrigNumFrames
250.000000	250.000000	7	24	m	250.000000	414	473
Frame#	Time	L.Toe.Tip			R.Toe.Tip			L.Ankle.Lat			R.Ankle.Lat			L.Ankle.Med			R.Ankle.Med			L.Heel			R.Heel			L.Knee.Lat			R.Knee.Lat			L.Knee.Med			R.Knee.Med			L.Thigh.Upper			R.Thigh.Upper			L.ASIS			R.ASIS			V.Sacral			L.Acromium			R.Acromium			C7			L.Elbow			R.Elbow			L.Wrist.Lat			R.Wrist.Lat
		X1	Y1	Z1	X2	Y2	Z2	X3	Y3	Z3	X4	Y4	Z4	X5	Y5	Z5	X6	Y6	Z6	X7	Y7	Z7	X8	Y8	Z8	X9	Y9	Z9	X10	Y10	Z10	X11	Y11	Z11	X12	Y12	Z12	X13	Y13	Z13	X14	Y14	Z14	X15	Y15	Z15	X16	Y16	Z16	X17	Y17	Z17	X18	Y18	Z18	X19	Y19	Z19	X20	Y20	Z20	X21	Y21	Z21	X22	Y22	Z22	X23	Y23	Z23	X24	Y24	Z24

414	1.652	1.7037352	0.033857485	0.0080046265	1.0291564	0.065900778	0.12354241	1.5799562	0.066368382	-0.022038995	1.0402313	0.20310826	0.16875836	1.5755964	0.08049403	0.063678415	1.0826281	0.19335374	0.08958604	1.5023786	0.039372492	0.016303205	1.0248694	0.25267042	0.10539108	1.6213674	0.44231913	-0.040409301	1.379686	0.39172978	0.21227264	1.5867263	0.43709995	0.075842907	1.3837686	0.36698558	0.078588405	1.4697282	0.80494511	-0.12174369	1.3963712	0.75410366	0.20769483	1.5242773	0.84566872	-0.064292668	1.4891572	0.81922201	0.17586745	1.3152152	0.89816057	0.044855045	1.4086824	1.3058239	-0.1467972	1.4097935	1.3046146	0.21686969	1.3301424	1.3404884	0.034131671	1.3187028	1.0042643	-0.18746246	1.3797848	0.98522336	0.30293807	1.4062681	0.78179914	-0.23780692	1.6129828	0.89627205	0.3021646
415	1.656	1.7036739	0.033840083	0.0078009654	1.0402403	0.068763784	0.12572597	1.5799149	0.066191562	-0.022226718	1.0522782	0.20615844	0.16930116	1.5756726	0.080578389	0.063498981	1.0945888	0.19573911	0.090054288	1.5023201	0.03954554	0.016016976	1.037174	0.25551693	0.10545928	1.6241929	0.44156471	-0.041377829	1.3919448	0.39233171	0.21347908	1.5901226	0.43657279	0.075010285	1.3964277	0.36805371	0.079454996	1.4757563	0.806087	-0.12205444	1.4028979	0.7548096	0.20760687	1.5302831	0.84666635	-0.064680107	1.4954453	0.8203858	0.17567784	1.3214395	0.89939914	0.044437173	1.4157155	1.3069383	-0.14697642	1.4159233	1.3056848	0.21674458	1.3367146	1.3417839	0.033799223	1.3269627	1.0047486	-0.1879934	1.3840814	0.98633852	0.30157937	1.416446	0.7827855	-0.23738991	1.6160689	0.89391937	0.30260649
416	1.66	1.7036242	0.033819201	0.0076017896	1.0521684	0.07146728	0.12776459	1.5798562	0.066022176	-0.022446931	1.0644875	0.20901585	0.16984578	1.5757932	0.080689269	0.063310434	1.1067957	0.19812164	0.090568939	1.5022691	0.039643336	0.015904212	1.0494217	0.25813519	0.10561984	1.6268415	0.44077833	-0.042292452	1.4042517	0.39315003	0.21461996	1.593194	0.43602085	0.074218445	1.4089552	0.36950523	0.080481759	1.4817926	0.80725394	-0.12234312	1.4092272	0.75564054	0.20754349	1.5362805	0.84766465	-0.065046853	1.5017119	0.82167787	0.17554678	1.3277076	0.90068999	0.04393899	1.4227122	1.3081288	-0.14713305	1.4219761	1.3068202	0.21660802	1.3432385	1.3431168	0.033435245	1.3352397	1.0052957	-0.18851177	1.3882942	0.98750713	0.30027454	1.4267155	0.78390122	-0.23692852	1.6190588	0.89160553	0.30305016
417	1.664	1.7035886	0.033795793	0.007423101	1.0648518	0.073971037	0.12962074	1.5797884	0.065870165	-0.022674133	1.0768773	0.21170428	0.17038952	1.5759769	0.080828451	0.063121857	1.1192308	0.20044927	0.091104652	1.5022255	0.039691836	0.015893334	1.0616606	0.26049579	0.10584768	1.6293378	0.43997919	-0.043121524	1.4165933	0.39418933	0.21571412	1.5959813	0.4354914	0.073482097	1.4214616	0.37120349	0.081791067	1.4878361	0.80841375	-0.12260965	1.4153618	0.7566061	0.20750347	1.5422672	0.84866964	-0.065393497	1.5079473	0.82308736	0.17546854	1.3339679	0.90200899	0.043384263	1.4296641	1.309392	-0.14726317	1.4279668	1.3080206	0.21647156	1.3497067	1.3444781	0.033048366	1.343527	1.0059075	-0.18900889	1.3925265	0.9887104	0.29900803	1.4370763	0.785151	-0.23642098	1.6219591	0.88934053	0.30350608
418	1.668	1.7035597	0.033771737	0.0072718109	1.0781788	0.07624799	0.13133368	1.5797114	0.065746671	-0.022908097	1.0894038	0.21425606	0.17086068	1.5761705	0.080984174	0.062944464	1.1318755	0.20268234	0.09163539	1.5021852	0.039721319	0.015919432	1.0739416	0.26259763	0.1060637	1.6316953	0.43918693	-0.043849153	1.4289542	0.3954366	0.21678672	1.5985147	0.43503719	0.072816717	1.43399	0.373061	0.083345277	1.4938822	0.80954934	-0.12287022	1.4213689	0.75771263	0.20748696	1.5482383	0.84968088	-0.065725155	1.5141215	0.82460014	0.17543236	1.3401072	0.90332651	0.042849713	1.4365596	1.3107228	-0.14737006	1.433896	1.3092809	0.21634936	1.3561166	1.3458671	0.032668815	1.3518154	1.0065843	-0.18947715	1.3968019	0.98994467	0.29777069	1.4475179	0.78652709	-0.23587177	1.6247687	0.88713432	0.30399966
419	1.672	1.7035249	0.033749027	0.0071461384	1.0920371	0.078260994	0.13301664	1.5796142	0.065662069	-0.023163347	1.1020224	0.21669113	0.17118166	1.5762292	0.081130045	0.062806179	1.1447118	0.20481126	0.092156247	1.5021408	0.039755566	0.015949995	1.0862677	0.26444296	0.10621431	1.6339172	0.43841924	-0.044472936	1.4413393	0.39686305	0.21783988	1.6008043	0.43469316	0.072237733	1.4464721	0.37503844	0.084884898	1.4999315	0.81064691	-0.12315164	1.4273975	0.75895218	0.20749668	1.5541999	0.85069273	-0.066056002	1.5202125	0.82619337	0.17542465	1.3460944	0.90463504	0.042383915	1.4433875	1.3121155	-0.14745743	1.439751	1.3105947	0.21625314	1.3624635	1.3472816	0.032326486	1.3600984	1.0073221	-0.18990731	1.4011142	0.99121439	0.29656442	1.4580247	0.7880191	-0.23528817	1.6274784	0.88499373	0.3045645
420	1.676	1.7034769	0.033730946	0.0070418796	1.1063235	0.079979489	0.13480041	1.5794957	0.065610472	-0.023408407	1.1147949	0.21897913	0.17138053	1.5759418	0.081237523	0.062761476	1.1577009	0.20682871	0.092650195	1.5020862	0.039810011	0.01596467	1.0986173	0.26603144	0.10628266	1.6360075	0.4376878	-0.044994104	1.4537662	0.39843968	0.21884313	1.6028652	0.43446617	0.071755157	1.4587868	0.37712324	0.086085078	1.5059958	0.81169059	-0.12347962	1.4335882	0.76030655	0.20752101	1.5601685	0.85169941	-0.06640556	1.5262234	0.82784197	0.17543336	1.352046	0.9059685	0.04195685	1.4501437	1.3135663	-0.14752274	1.4455136	1.3119578	0.21618889	1.368739	1.3487075	0.032029473	1.3683768	1.008119	-0.19029109	1.4054611	0.99252459	0.29539194	1.4685866	0.78962429	-0.23467419	1.6300737	0.8829232	0.30520949
